PathFileType	4	(X/Y/Z)	Patient4_TMGait_0pt4_01_right_15.trc.trc
DataRate	CameraRate	NumFrames	NumMarkers	Units	OrigDataRate	OrigDataStartFrame	OrigNumFrames
76.923076923077	76.923076923077	5	33	mm	76.923076923077	36	       141
Frame#	Time	Sacral			L.Shoulder			Chest			R.Shoulder			Neck			R.ASIS			L.ASIS			R.Thigh.Superior			R.Thigh.Lateral			R.Thigh.Inferior			R.Patella			L.Thigh.Superior			L.Thigh.Lateral			L.Thigh.Inferior			L.Patella			L.Shank.Superior			L.Shank.Lateral			L.Shank.Inferior			R.Shank.Superior			R.Shank.Lateral			R.Shank.Inferior			R.Heel			R.Midfoot.Superior			R.Midfoot.Lateral			R.Toe			L.Heel			L.Midfoot.Lateral			L.Midfoot.Superior			L.Toe			L.Elbow			L.Wrist			R.Elbow			R.Wrist			
		X1	Y1	Z1	X2	Y2	Z2	X3	Y3	Z3	X4	Y4	Z4	X5	Y5	Z5	X6	Y6	Z6	X7	Y7	Z7	X8	Y8	Z8	X9	Y9	Z9	X10	Y10	Z10	X11	Y11	Z11	X12	Y12	Z12	X13	Y13	Z13	X14	Y14	Z14	X15	Y15	Z15	X16	Y16	Z16	X17	Y17	Z17	X18	Y18	Z18	X19	Y19	Z19	X20	Y20	Z20	X21	Y21	Z21	X22	Y22	Z22	X23	Y23	Z23	X24	Y24	Z24	X25	Y25	Z25	X26	Y26	Z26	X27	Y27	Z27	X28	Y28	Z28	X29	Y29	Z29	X30	Y30	Z30	X31	Y31	Z31	X32	Y32	Z32	X33	Y33	Z33	

36	19.785000000000	783.700069209401	1005.030101498606	456.299693083411	944.399735696863	1436.617763892740	268.539072340287	1060.938085510792	1370.775448836098	421.017959706385	987.928944512410	1442.473931344434	600.888387562827	938.189739653739	1496.180179818055	437.055374035689	1017.464616564163	945.125853431041	563.771560262499	990.930115200700	962.426202989262	291.069030671011	1062.567149908409	744.340542331610	534.070347134549	987.788009138441	633.440871853815	598.380994222165	1064.095192104084	583.347739635704	515.301054597069	1068.138048624475	494.949180841287	522.476659669738	1029.071262684564	739.327457783232	312.422681366798	933.474201939999	628.346059451130	249.368408910040	1020.626213584393	541.651611184239	300.340713527931	1013.035834644138	459.825564860992	297.650269438910	951.456665473162	400.968128399704	295.826492156688	815.125587733790	338.738596457409	257.744268921514	822.741514120291	209.327093334879	313.883473115015	1038.928929465088	405.906903250815	530.857833348497	969.231470946156	303.336047891391	594.756653701710	1008.219152517599	207.202851253391	531.739168318634	872.312540048980	43.387623355310	507.564251796967	1044.769516264817	97.209156473604	539.711944498806	956.987501143927	37.428162243452	580.489631329140	1165.116320885654	41.839554013913	566.099861302302	649.501275375264	107.982662805031	366.453567381878	709.913189693831	74.306099946154	283.396783133092	810.097983214692	108.808900216693	296.326877675462	910.683861812063	34.940743883151	266.192924072180	916.991196978132	1143.950576176994	62.860191415043	1141.279108877169	1086.226124382235	-49.795357264408	964.985459976516	1100.445069120890	732.956909934510	1109.797472086242	883.577022281832	725.959042829446	
37	19.798000000000	783.888230225818	1004.964496025377	459.850459288284	942.345536213925	1436.801100140278	271.292359567082	1060.263813468907	1371.132377440069	422.849130313219	988.637809018812	1442.588600617818	603.331489973800	937.351848147071	1496.288987028802	439.852132626314	1018.176468022163	945.149409203915	565.588677801556	990.072160035194	962.769237515840	293.231575100356	1061.639133406678	743.753038487989	536.156465250416	986.065898889382	633.246348210548	600.301037747424	1061.823543075187	582.780088976886	517.012253612407	1065.221816431272	494.309254897189	523.993737299859	1032.821964889197	741.595164600866	313.782486456060	940.884549629672	628.860706190917	249.594100900254	1030.483803324376	543.649533767109	299.978138760502	1023.749497677989	460.722055767435	296.335208048375	960.499184529960	401.913984334638	294.809079718956	822.157857222685	343.872356545881	257.176092505469	826.342667461233	214.127922799518	312.648596090570	1035.650437564593	405.447505975134	532.069868912390	965.450223122349	303.039930795589	595.575185303599	1003.963915084449	206.923570278357	532.250805496393	867.281634896768	43.344364347845	507.704464211714	1039.743849532300	97.093343404951	539.839392834468	951.980602118693	37.360032066853	580.605370379770	1160.139973189584	41.593273079671	566.279861962684	649.755714639979	120.461786381749	365.177965961431	708.540695738717	82.979060500064	282.553772152043	810.296382087957	112.227107690895	295.333810111347	906.136444221475	33.987237115392	266.410085026901	912.102243350054	1140.245633519161	70.069801528213	1135.453181380109	1074.256550986936	-40.581629829660	971.875052344199	1100.122475069900	735.615010137368	1125.385269401673	889.780832361451	723.884999732289	
38	19.811000000000	783.846793289865	1004.835732006950	463.319533193599	940.267786853415	1436.815040821877	273.883414560386	1059.566456474758	1371.295149147820	424.496446079163	989.415781032679	1442.591116459340	605.591126119945	936.582206613425	1496.280496430762	442.458003483657	1018.642986849340	945.018025745910	567.327238674839	988.999011348365	962.961626932454	295.299023960091	1060.625371991118	743.138422827917	538.106832242237	984.357901133214	632.970992639612	602.101332765629	1059.576040872682	582.194729330484	518.582852665817	1062.327441915804	493.632095948889	525.396122806939	1036.432392635105	744.032355608833	315.201433571256	948.338986445608	629.607370758010	249.789069657239	1040.201318563814	546.042635147910	299.854444436216	1034.456572762596	462.094120193975	295.422830159911	969.724541183532	403.189420618582	294.034422300857	829.634825364026	349.221528373937	256.588844382858	830.400337218915	219.303971424322	311.583016612342	1032.385341193717	404.939397885464	533.189377789579	961.683357052308	302.705692868675	596.338144467545	999.698653742444	206.616412551896	532.719632648024	862.224633515131	43.297818960791	507.827962525953	1034.698465405087	96.978320302774	539.961901852786	946.940510759337	37.294648188810	580.712117765369	1155.122042500151	41.388928263409	566.448482677805	650.733533053983	133.569035955505	363.898286699138	707.768554279717	92.442833911989	281.693716540717	810.898049631665	116.184012307985	294.525551446254	901.728513018350	32.931772920461	266.654855817300	907.172071210859	1136.288345399826	77.398917848918	1129.169342936530	1061.408997856996	-31.143446774315	978.829996436846	1099.856549319483	738.114672525392	1140.749977604348	896.534704865504	721.559521213024	
39	19.824000000000	783.569797400385	1004.654715537373	466.676602871121	938.182124599789	1436.680222178017	276.292684206314	1058.837972609407	1371.282918758095	425.954420844331	990.231619038201	1442.502969684181	607.650835163918	935.873194286508	1496.177922747976	444.854595935820	1018.882202370648	944.762337572117	568.983766280911	987.700815954478	963.032025218763	297.251327545019	1059.590856291761	742.526173682729	539.870064893020	982.730034555718	632.633356821842	603.740404073856	1057.423970235181	581.600879813564	519.985038343536	1059.517915032446	492.927054792114	526.644122030616	1039.796990680176	746.637956278577	316.688420912166	955.661335239316	630.613271350154	249.998626360687	1049.598038112123	548.831226429708	299.988320629534	1044.999687300119	463.938159221247	294.909812867597	978.962431168425	404.802463752591	293.522241929854	837.380114175652	354.724590902447	256.033289903759	834.815151157264	224.766826474368	310.724895761018	1029.182393814823	404.389495425241	534.185136622963	957.975711005108	302.351547123826	597.030882002497	995.438821883472	206.286627759488	533.128069756547	857.128890639625	43.263710786153	507.938987340791	1029.625238760534	96.869867117628	540.079456948421	941.854060167346	37.239482337018	580.811250124743	1150.052716928207	41.214745550354	566.607978153009	652.412255399303	146.974152329007	362.694560500872	707.620004506919	102.469545251237	280.864639487739	811.893751637088	120.638853389900	293.903926417923	897.575299996604	31.850476951882	266.870602366051	902.250459073699	1132.096436314080	84.863930246381	1122.377564675547	1047.735466137062	-21.492864513452	985.847637592809	1099.658365795130	740.411588650214	1155.818896196799	903.816644495749	718.971500331413	
40	19.837000000000	783.065473376171	1004.441452323973	469.901199721157	936.098923365056	1436.427729228275	278.509531000872	1058.072251558426	1371.128681951281	427.222290367886	991.057081355759	1442.354420737787	609.501057155787	935.214380604640	1496.010505710450	447.033855446424	1018.921678599967	944.417661754952	570.548179266716	986.172099908366	963.021148085735	299.075111980178	1058.568742073797	741.931623854888	541.417367146315	981.195225649769	632.252850714557	605.190101309400	1055.386086007579	581.002408390974	521.206757854461	1056.809242683082	492.204638305752	527.711211783861	1042.819260369073	749.403757568565	318.244294697810	962.683723076076	631.893940057531	250.254677237539	1058.516260810021	551.997315621947	300.365171200619	1055.225664648007	466.232024719287	294.744490425642	988.047906249226	406.749295076577	293.254464770835	845.209580432570	360.303920899964	255.557496604841	839.498493709131	230.398873710226	310.088171988348	1026.052412709190	403.808946340503	535.039982973938	954.337137753313	301.993763773734	597.645249542567	991.186271293996	205.941478137250	533.466691403298	851.991602349408	43.249060571203	508.041162067767	1024.521001525561	96.772137714811	540.191632952746	936.718401213959	37.197406350274	580.904252042132	1144.931212136457	41.064046609080	566.759769172841	654.764091677470	160.262889179061	361.655279454799	708.123033942695	112.748224277595	280.115611358772	813.302498107090	125.498413602413	293.445390058385	893.856411380953	30.854936897580	266.975118595032	897.385476984138	1127.710289618414	92.479655472620	1115.021778479469	1033.303089300700	-11.624976013418	992.914819303675	1099.546022131098	742.463713122442	1170.524674725493	911.610144443293	716.111360320112	
